<?xml version="1.0" standalone="no"?>
<!DOCTYPE svg PUBLIC "-//W3C//DTD SVG 20010904//EN"
 "http://www.w3.org/TR/2001/REC-SVG-20010904/DTD/svg10.dtd">
<svg version="1.0" xmlns="http://www.w3.org/2000/svg"
 width="325.000000pt" height="325.000000pt" viewBox="0 0 325.000000 325.000000"
 preserveAspectRatio="xMidYMid meet">
<metadata>
Created by potrace 1.11, written by Peter Selinger 2001-2013
</metadata>
<g transform="translate(0.000000,325.000000) scale(0.100000,-0.100000)"
fill="#000000" stroke="none">
<path d="M1460 3160 c-434 -53 -833 -288 -1079 -635 -119 -170 -219 -405 -257
-610 -26 -137 -26 -422 -1 -550 112 -554 487 -987 1017 -1170 450 -155 977
-78 1370 203 120 85 276 241 359 357 119 169 221 409 259 609 26 141 23 448
-6 583 -44 205 -132 407 -250 573 -84 119 -249 285 -367 368 -170 120 -412
221 -615 256 -116 20 -329 28 -430 16z m40 -1030 l0 -70 -295 0 -295 0 0 -165
0 -165 250 0 250 0 0 -75 0 -75 -250 0 -250 0 0 -175 0 -175 310 0 310 0 0
-75 0 -75 -390 0 -390 0 0 560 0 560 375 0 375 0 0 -70z m310 -230 l0 -220
270 0 270 0 0 220 0 220 80 0 80 0 0 -520 0 -520 -80 0 -80 0 0 230 0 230
-270 0 -270 0 0 -230 0 -230 -80 0 -80 0 0 520 0 520 80 0 80 0 0 -220z"/>
</g>
</svg>
