<svg width="150" height="150" viewBox="0 0 150 150" fill="none" xmlns="http://www.w3.org/2000/svg">
<path d="M150 75C150 116.421 116.421 150 75 150C33.5786 150 0 116.421 0 75C0 33.5786 33.5786 0 75 0C116.421 0 150 33.5786 150 75Z" fill="#EB4A9B"/>
<path d="M141.964 75C141.964 111.983 111.983 141.964 75 141.964C38.0166 141.964 8.03571 111.983 8.03571 75C8.03571 38.0166 38.0166 8.03571 75 8.03571C111.983 8.03571 141.964 38.0166 141.964 75Z" fill="white"/>
<path d="M95.7197 33.7274C98.0477 36.9867 100.686 39.9743 103.635 42.6904C106.584 45.3677 109.688 47.9285 112.947 50.373C113.258 50.5282 113.491 50.6834 113.646 50.8386C114.034 51.5758 113.917 52.1578 113.297 52.5846L99.3282 62.3043C98.1253 63.2743 98.3 63.8369 99.852 63.9921C105.323 64.1861 109.688 67.2514 112.947 73.1879C116.207 79.1245 117.681 84.4402 117.371 89.1351C116.75 97.5161 112.753 104.752 105.381 110.844C98.0477 116.936 89.4921 120.234 79.7143 120.738C67.1428 121.437 56.2398 117.596 47.0051 109.215C37.7705 100.795 32.9786 90.5319 32.6294 78.426C32.319 65.4665 35.5007 54.6993 42.1744 46.1243C48.887 37.5493 56.6278 33.2618 65.3968 33.2618C72.3421 33.2618 77.2117 36.2494 80.0053 42.2248C80.3157 42.8844 80.8007 43.0008 81.4604 42.574L93.9737 33.3782C94.6333 32.9514 95.2153 33.0678 95.7197 33.7274ZM86.8149 71.9657C85.7673 72.0045 84.6226 72.1597 83.381 72.4313C82.4886 72.5865 81.926 72.3731 81.6932 71.7911C81.4604 71.1703 81.732 70.627 82.508 70.1614L99.27 58.5212C99.9296 58.0556 99.949 57.5511 99.3282 57.0079C93.4304 52.4682 88.6773 47.9479 85.0688 43.447C84.7196 42.9814 84.2928 42.9232 83.7884 43.2724L77.1535 48.1031C72.963 51.2072 71.0035 54.6605 71.2751 58.463C71.5855 62.2655 74.2434 66.8828 79.2487 72.3149C87.6297 81.5495 90.21 88.5531 86.9895 93.3256C83.8078 98.0981 78.6085 102.405 71.3915 106.246C70.4991 106.673 69.8395 106.615 69.4127 106.072C69.0247 105.49 69.1993 104.869 69.9365 104.209C71.6437 102.58 73.4674 100.64 75.4074 98.3891C77.3475 96.1387 74.8448 90.7647 67.8994 82.2673C62.9717 76.2532 60.0034 71.4419 58.9946 67.8334C57.9858 64.1861 58.1604 61.1596 59.5184 58.754C60.9153 56.3095 63.1269 54.1949 66.1534 52.41C69.1799 50.6252 72.2839 48.5687 75.4656 46.2407L77.7355 44.5528C78.1235 44.2812 78.2399 43.9126 78.0847 43.447C76.3774 38.4029 72.4197 35.939 66.2116 36.0554C60.6631 36.2106 56.1234 39.4893 52.5925 45.8915C49.1004 52.2548 47.4707 59.5106 47.7036 67.6588C48.1692 82.9463 51.7 94.9552 58.2962 103.685C64.8924 112.377 73.157 116.723 83.09 116.723C89.8414 116.723 95.0213 114.2 98.6298 109.156C102.277 104.073 104.062 98.6025 103.984 92.7436C103.907 87.8935 102.355 83.2179 99.3282 78.717C96.3405 74.2161 92.1694 71.9657 86.8149 71.9657Z" fill="#377B67"/>
</svg>
