<svg width="180" height="180" viewBox="0 0 180 180" fill="none" xmlns="http://www.w3.org/2000/svg">
<path d="M180 90C180 139.706 139.706 180 90 180C40.2944 180 0 139.706 0 90C0 40.2944 40.2944 0 90 0C139.706 0 180 40.2944 180 90Z" fill="white"/>
<path d="M123.07 20.9525C126.761 26.1205 130.945 30.8578 135.621 35.1644C140.296 39.4095 145.218 43.4701 150.386 47.3461C150.879 47.5922 151.248 47.8383 151.494 48.0844C152.109 49.2533 151.924 50.1761 150.94 50.8529L128.792 66.2645C126.884 67.8026 127.161 68.6947 129.622 68.9408C138.297 69.2484 145.218 74.1088 150.386 83.5219C155.554 92.9349 157.892 101.364 157.4 108.808C156.416 122.097 150.079 133.571 138.389 143.23C126.761 152.89 113.195 158.119 97.6915 158.919C77.7579 160.026 60.4698 153.935 45.8272 140.646C31.1847 127.296 23.5865 111.023 23.0328 91.8275C22.5406 71.2787 27.5855 54.2059 38.1676 40.6093C48.8111 27.0126 61.0851 20.2142 74.9894 20.2142C86.0021 20.2142 93.7232 24.9515 98.1529 34.4261C98.6451 35.472 99.4142 35.6566 100.46 34.9799L120.301 20.3988C121.347 19.722 122.27 19.9066 123.07 20.9525ZM108.95 81.5839C107.289 81.6454 105.474 81.8915 103.505 82.3221C102.09 82.5682 101.198 82.2299 100.829 81.307C100.46 80.3226 100.891 79.4613 102.121 78.723L128.699 60.266C129.745 59.5277 129.776 58.7279 128.792 57.8666C119.44 50.6683 111.903 43.5009 106.182 36.3641C105.628 35.6259 104.951 35.5336 104.151 36.0873L93.631 43.7469C86.9864 48.6688 83.8795 54.1444 84.3102 60.1737C84.8023 66.203 89.0167 73.5243 96.9532 82.1376C110.242 96.7802 114.334 107.885 109.227 115.453C104.182 123.02 95.9381 129.849 84.4947 135.94C83.0797 136.617 82.0338 136.524 81.357 135.663C80.7418 134.74 81.0187 133.756 82.1876 132.71C84.8946 130.126 87.7862 127.05 90.8624 123.481C93.9386 119.913 89.9703 111.392 78.9576 97.9183C71.1441 88.3822 66.4376 80.7533 64.838 75.0316C63.2384 69.2484 63.5152 64.4496 65.6686 60.6351C67.8834 56.7592 71.3902 53.4061 76.1891 50.576C80.9879 47.746 85.9098 44.4852 90.9547 40.7938L94.5538 38.1176C95.169 37.6869 95.3536 37.1024 95.1075 36.3641C92.4005 28.3661 86.1251 24.4594 76.2813 24.6439C67.4835 24.89 60.2853 30.0887 54.6866 40.2401C49.1495 50.33 46.5655 61.8348 46.9347 74.7548C47.673 98.995 53.2716 118.036 63.7306 131.879C74.1896 145.661 87.294 152.551 103.044 152.551C113.749 152.551 121.963 148.552 127.684 140.554C133.467 132.495 136.297 123.82 136.174 114.53C136.051 106.839 133.59 99.4257 128.792 92.2889C124.054 85.1522 117.441 81.5839 108.95 81.5839Z" fill="#377B67"/>
</svg>
